<?xml version="1.0" encoding="UTF-8" standalone="no"?>
<!-- Created with Inkscape (http://www.inkscape.org/) -->

<svg
   xmlns:osb="http://www.openswatchbook.org/uri/2009/osb"
   xmlns:dc="http://purl.org/dc/elements/1.1/"
   xmlns:cc="http://creativecommons.org/ns#"
   xmlns:rdf="http://www.w3.org/1999/02/22-rdf-syntax-ns#"
   xmlns:svg="http://www.w3.org/2000/svg"
   xmlns="http://www.w3.org/2000/svg"
   xmlns:xlink="http://www.w3.org/1999/xlink"
   xmlns:sodipodi="http://sodipodi.sourceforge.net/DTD/sodipodi-0.dtd"
   xmlns:inkscape="http://www.inkscape.org/namespaces/inkscape"
   width="150mm"
   height="150mm"
   viewBox="0 0 150 150"
   version="1.1"
   id="svg8"
   sodipodi:docname="logo1.svg"
   inkscape:version="0.92.5 (2060ec1f9f, 2020-04-08)"
   inkscape:export-filename="C:\Users\mrbm\Desktop\logo.png"
   inkscape:export-xdpi="537"
   inkscape:export-ydpi="537">
  <defs
     id="defs2">
    <linearGradient
       inkscape:collect="always"
       id="linearGradient2609">
      <stop
         style="stop-color:#33415b;stop-opacity:1;"
         offset="0"
         id="stop2605" />
      <stop
         style="stop-color:#33415b;stop-opacity:0;"
         offset="1"
         id="stop2607" />
    </linearGradient>
    <linearGradient
       inkscape:collect="always"
       id="linearGradient2595"
       osb:paint="gradient">
      <stop
         style="stop-color:#33415b;stop-opacity:1;"
         offset="0"
         id="stop2591" />
      <stop
         style="stop-color:#33415b;stop-opacity:0;"
         offset="1"
         id="stop2593" />
    </linearGradient>
    <linearGradient
       inkscape:collect="always"
       xlink:href="#linearGradient2609"
       id="linearGradient2611"
       x1="9.7819859"
       y1="224.86274"
       x2="138.33635"
       y2="224.86274"
       gradientUnits="userSpaceOnUse" />
  </defs>
  <sodipodi:namedview
     id="base"
     pagecolor="#ffffff"
     bordercolor="#666666"
     borderopacity="1.0"
     inkscape:pageopacity="0.0"
     inkscape:pageshadow="2"
     inkscape:zoom="1.4"
     inkscape:cx="274.29065"
     inkscape:cy="335.77656"
     inkscape:document-units="mm"
     inkscape:current-layer="layer1"
     showgrid="false"
     showguides="true"
     inkscape:guide-bbox="true"
     inkscape:window-width="1920"
     inkscape:window-height="1013"
     inkscape:window-x="-9"
     inkscape:window-y="-9"
     inkscape:window-maximized="1">
    <sodipodi:guide
       position="48.977141,130.62798"
       orientation="1,0"
       id="guide228"
       inkscape:locked="false" />
    <sodipodi:guide
       position="28.442708,91.422991"
       orientation="1,0"
       id="guide230"
       inkscape:locked="false" />
    <sodipodi:guide
       position="129.45684,112.06994"
       orientation="1,0"
       id="guide1101"
       inkscape:locked="false" />
    <sodipodi:guide
       position="131.4176,124.25967"
       orientation="0,1"
       id="guide1103"
       inkscape:locked="false" />
  </sodipodi:namedview>
  <metadata
     id="metadata5">
    <rdf:RDF>
      <cc:Work
         rdf:about="">
        <dc:format>image/svg+xml</dc:format>
        <dc:type
           rdf:resource="http://purl.org/dc/dcmitype/StillImage" />
        <dc:title></dc:title>
      </cc:Work>
    </rdf:RDF>
  </metadata>
  <g
     inkscape:label="Capa 1"
     inkscape:groupmode="layer"
     id="layer1"
     transform="translate(0,-147)">
    <g
       id="g34"
       transform="matrix(0.26458333,0,0,0.26458333,41.123678,148.37976)" />
    <rect
       style="fill:#d40000;fill-opacity:1;fill-rule:nonzero;stroke:url(#linearGradient2611);stroke-width:0.26499999;stroke-miterlimit:4;stroke-dasharray:none;stroke-opacity:1"
       id="rect201"
       width="134.1693"
       height="125.08214"
       x="8.4541578"
       y="157.57568"
       rx="11.392849"
       ry="12.471342" />
    <g
       id="g217"
       transform="matrix(0.07866665,0,0,0.0877192,121.29612,96.10304)"
       style="fill:#ffffff;stroke-width:3.18507671" />
    <text
       xml:space="preserve"
       style="font-style:normal;font-weight:normal;font-size:10.58333302px;line-height:1.25;font-family:sans-serif;letter-spacing:0px;word-spacing:0px;fill:#000000;fill-opacity:1;stroke:none;stroke-width:0.26458332"
       x="44.979168"
       y="238.03571"
       id="text1039"><tspan
         sodipodi:role="line"
         id="tspan1037"
         x="44.979168"
         y="247.69121"
         style="stroke-width:0.26458332"></tspan></text>
    <text
       xml:space="preserve"
       style="font-style:normal;font-weight:normal;font-size:10.22628212px;line-height:1.25;font-family:sans-serif;letter-spacing:0px;word-spacing:0px;fill:#ffffff;fill-opacity:1;stroke:none;stroke-width:0.26458332"
       x="39.172882"
       y="262.37018"
       id="text3090"
       transform="scale(0.98116439,1.0191972)"><tspan
         sodipodi:role="line"
         id="tspan3088"
         x="39.172882"
         y="262.37018"
         style="font-style:italic;font-variant:normal;font-weight:800;font-stretch:normal;font-size:16.36205101px;font-family:'Open Sans';-inkscape-font-specification:'Open Sans Ultra-Bold Italic';fill:#ffffff;stroke-width:0.26458332">DINOBOX</tspan></text>
  </g>
  <g
     inkscape:groupmode="layer"
     id="layer2"
     inkscape:label="Capa 2">
    <g
       id="g3080"
       transform="translate(15.300709,-15.431174)">
      <g
         style="fill:#ffffff;stroke-width:8.65508938"
         transform="matrix(0.03172916,6.7308485e-4,-6.2450935e-4,0.02943932,81.103077,77.75803)"
         id="g3056">
        <g
           style="fill:#ffffff;stroke-width:8.65508938"
           id="g2996">
	<g
   style="fill:#ffffff;stroke-width:8.65508938"
   id="g2994">
		<path
   style="fill:#ffffff;stroke-width:8.65508938"
   inkscape:connector-curvature="0"
   d="m 511.776,111.254 c -0.096,-1.632 -0.192,-3.264 -0.8,-4.896 -0.352,-0.928 -0.992,-1.568 -1.504,-2.4 -0.352,-0.576 -0.608,-1.088 -0.992,-1.6 -1.792,-2.336 -4,-4.128 -6.656,-5.152 -0.096,-0.032 -0.128,-0.128 -0.224,-0.16 L 245.6,1.078 c -3.872,-1.504 -8.128,-1.408 -11.904,0.224 l -224,95.968 c -0.224,0.096 -0.32,0.352 -0.544,0.448 -2.208,1.056 -4.064,2.688 -5.6,4.704 -0.448,0.576 -0.832,1.088 -1.216,1.728 -0.32,0.544 -0.8,0.928 -1.056,1.536 -0.864,2.048 -1.28,4.16 -1.28,6.272 v 0.032 288 c 0,6.4 3.808,12.192 9.696,14.72 l 224,96 h 0.032 c 1.952,0.832 4.064,1.28 6.272,1.28 1.92,0 3.808,-0.352 5.632,-1.024 l 0.576,-0.224 c 0,0 0,0 0.032,0 L 501.632,414.966 C 507.872,412.63 512,406.646 512,399.99 v -288 c 0,-0.288 -0.224,-0.48 -0.224,-0.736 z M 224,471.702 32,389.43 V 136.277 l 192,82.272 z M 240.384,190.742 56.64,111.99 240.384,33.27 450.432,111.99 400.352,130.774 310.56,90.55 c -4.544,-2.048 -9.728,-1.824 -14.048,0.544 L 233.76,117.75 c -5.92,2.496 -9.76,8.384 -9.76,14.816 0,6.464 3.904,12.32 9.92,14.784 l 58.208,24.032 z m 111.616,-7.68 32,-12 v 77.984 l -32,12 z M 336.064,154.87 281.344,132.31 304,122.678 357.76,146.742 Z M 480,388.886 l -224,84 V 219.062 l 64,-24 v 89.088 c 0,5.248 2.592,10.144 6.88,13.152 2.72,1.888 5.888,2.848 9.12,2.848 1.888,0 3.808,-0.352 5.632,-1.024 l 64,-24 C 411.872,272.758 416,266.806 416,260.15 V 159.062 l 64,-24 z"
   id="path2992" />

	</g>

</g>
        <g
           style="fill:#ffffff;stroke-width:8.65508938"
           id="g2998">
</g>
        <g
           style="fill:#ffffff;stroke-width:8.65508938"
           id="g3000">
</g>
        <g
           style="fill:#ffffff;stroke-width:8.65508938"
           id="g3002">
</g>
        <g
           style="fill:#ffffff;stroke-width:8.65508938"
           id="g3004">
</g>
        <g
           style="fill:#ffffff;stroke-width:8.65508938"
           id="g3006">
</g>
        <g
           style="fill:#ffffff;stroke-width:8.65508938"
           id="g3008">
</g>
        <g
           style="fill:#ffffff;stroke-width:8.65508938"
           id="g3010">
</g>
        <g
           style="fill:#ffffff;stroke-width:8.65508938"
           id="g3012">
</g>
        <g
           style="fill:#ffffff;stroke-width:8.65508938"
           id="g3014">
</g>
        <g
           style="fill:#ffffff;stroke-width:8.65508938"
           id="g3016">
</g>
        <g
           style="fill:#ffffff;stroke-width:8.65508938"
           id="g3018">
</g>
        <g
           style="fill:#ffffff;stroke-width:8.65508938"
           id="g3020">
</g>
        <g
           style="fill:#ffffff;stroke-width:8.65508938"
           id="g3022">
</g>
        <g
           style="fill:#ffffff;stroke-width:8.65508938"
           id="g3024">
</g>
        <g
           style="fill:#ffffff;stroke-width:8.65508938"
           id="g3026">
</g>
      </g>
    </g>
    <path
       style="opacity:1;fill:#ffffff;fill-opacity:1;fill-rule:nonzero;stroke:none;stroke-width:0.26499999;stroke-miterlimit:4;stroke-dasharray:none;stroke-opacity:0.78793778"
       d="m 64.681651,105.18047 c -0.11099,-0.18076 -0.560216,-0.22473 -1.216583,-0.11909 -0.84496,0.13606 -1.334245,0.0238 -2.602223,-0.59691 -0.858878,-0.42043 -2.082075,-0.9494 -2.718214,-1.17551 -2.332984,-0.82923 -3.258792,-3.942356 -2.982339,-10.028406 0.09772,-2.15134 0.06468,-3.59985 -0.08424,-3.69248 -0.134777,-0.0838 -0.322343,-0.67125 -0.416817,-1.30536 -0.154157,-1.03469 -0.07806,-1.29503 0.741863,-2.53835 0.502502,-0.76198 1.047695,-1.921287 1.211549,-2.576247 0.352969,-1.410887 0.771346,-1.831767 3.015519,-3.033577 1.813149,-0.970983 2.416193,-1.609014 1.957314,-2.070882 -0.890159,-0.895957 -17.513414,-1.396016 -21.722199,-0.653442 -2.513942,0.443542 -5.412821,1.184334 -7.454412,1.904928 -2.113344,0.745921 -7.767782,3.153762 -8.052149,3.428866 -0.1343,0.129918 -0.412457,0.236217 -0.618138,0.236217 -0.294504,0 -0.273205,-0.112066 0.100218,-0.527383 0.490938,-0.546013 4.890052,-3.611795 5.18259,-3.611795 0.09101,0 0.348072,-0.152148 0.571249,-0.338105 0.349831,-0.291488 3.997645,-2.048978 7.345446,-3.538983 2.215016,-0.985838 6.655776,-2.627238 11.566117,-4.275084 7.017946,-2.355135 7.578493,-2.678387 11.437601,-6.595769 1.990681,-2.020745 4.077269,-3.845549 5.48536,-4.797161 1.438853,-0.972411 3.701828,-2.961216 6.168596,-5.421244 5.144672,-5.130619 6.577235,-5.812514 12.239095,-5.825759 l 2.96604,-0.007 2.377478,-2.558015 c 1.307616,-1.406911 2.37748,-2.747193 2.37748,-2.978407 0,-0.231211 -0.241748,-0.89734 -0.53722,-1.480284 -0.52104,-1.027978 -0.523702,-1.090073 -0.08837,-2.061751 0.351419,-0.784385 0.388171,-1.135882 0.169332,-1.619322 -0.237113,-0.523797 -0.167601,-0.770647 0.458213,-1.627166 0.477994,-0.654203 0.800956,-1.489409 0.917308,-2.372221 0.09876,-0.749391 0.332181,-1.516126 0.518695,-1.703855 0.186513,-0.187727 1.026468,-0.463189 1.866564,-0.612132 0.840094,-0.148946 2.092773,-0.559145 2.783731,-0.911559 1.055355,-0.538274 4.785685,-3.356924 5.941395,-4.489343 0.7222,-0.707638 3.10364,-2.16034 4.15152,-2.53246 1.51964,-0.539653 3.05852,-0.49262 4.12781,0.126168 0.49256,0.285042 1.50415,0.823181 2.24797,1.195866 1.46532,0.73419 1.50017,0.803895 1.69061,3.380574 0.10984,1.48634 0.0784,1.607999 -0.43419,1.681543 -0.48559,0.06966 -0.54735,0.230878 -0.50922,1.32909 0.0322,0.928241 -0.0835,1.377535 -0.44979,1.746217 -0.27126,0.273026 -0.4932,0.683649 -0.4932,0.912503 0,0.320056 -0.15589,0.376708 -0.67545,0.245459 -0.50335,-0.127154 -0.80475,-0.03096 -1.18287,0.377542 -0.27906,0.301499 -0.64016,0.493246 -0.80243,0.426106 -1.22344,-0.506207 -1.19446,-0.515452 -1.19906,0.382685 -0.003,0.584683 -0.21295,1.067516 -0.64257,1.477677 -0.35096,0.335073 -0.63812,0.7763 -0.63812,0.980501 0,0.204202 -0.4805,0.817852 -1.06781,1.363673 -0.62609,0.58188 -1.01049,1.142728 -0.92925,1.355808 0.0762,0.199871 0.79226,0.570811 1.59125,0.824311 1.5448,0.490124 2.95742,1.560503 3.67653,2.785792 0.26078,0.444336 0.65602,0.747102 0.9753,0.747102 0.29525,0 1.08742,0.351454 1.76039,0.781016 0.67296,0.429557 1.33679,0.710573 1.4752,0.624475 0.13841,-0.0861 0.39116,-0.04382 0.56167,0.09395 0.53158,0.429483 3.16233,0.360626 3.536,-0.09255 0.28784,-0.349089 0.37368,-0.295516 0.67245,0.41967 0.78411,1.877011 0.0777,4.047322 -1.5948,4.899619 -0.97758,0.498176 -5.14898,0.515796 -9.85195,0.04161 -4.78777,-0.482729 -4.93929,-0.43825 -6.10346,1.791596 -0.73662,1.410924 -1.34601,2.1403 -2.74736,3.288345 -2.342035,1.918669 -2.434545,2.082004 -1.864303,3.291532 0.303866,0.644514 0.413421,1.309005 0.3251,1.971799 -0.0031,1.266829 -0.461426,3.068651 1.004343,2.315913 0.53821,-0.11999 -0.347935,0.561966 -0.653931,0.77885 -0.08144,0 -0.517757,0.458978 -0.825232,-0.09167 -1.149413,-2.058422 -1.752921,-1.19159 -3.053313,0.8481 -0.457782,0.718037 -0.788534,1.342024 -0.73501,1.386644 0.05353,0.04461 0.733459,0.372471 1.510958,0.728569 1.670209,0.764956 4.084418,1.5775 3.605908,1.777508 -0.0136,0.316779 -1.582958,-0.259272 -1.491577,0.150569 0.08133,0.364774 0.728357,1.576926 0.414339,1.799483 -0.268351,0.190191 -0.916206,-1.580267 -1.900129,-2.196519 -1.682257,-1.053634 -3.616881,-1.287135 -4.586468,-1.208285 -0.369496,0.124183 -0.67713,0.160777 -1.318838,0.658772 -1.137768,0.882962 -1.163273,0.934352 -1.0271,2.06959 0.775059,6.46153 0.732533,9.452733 -0.167302,11.76702 -0.619146,1.592392 -1.566522,2.613289 -4.066848,4.382489 -2.295041,1.62394 -3.855374,3.28686 -3.855374,4.10884 0,1.47928 3.047393,4.31252 6.395231,5.94581 1.568264,0.7651 1.876127,0.8248 3.943846,0.76483 2.116699,-0.0615 2.265462,-0.0302 2.645961,0.55426 0.250176,0.3843 0.839603,0.72994 1.553266,0.9108 1.087626,0.27565 2.168307,1.044856 2.168307,1.543366 0,0.45757 -0.675719,0.75835 -2.056196,0.91523 -1.677262,0.19064 -2.473011,0.21546 -3.341325,0.10417 -0.56906,-0.073 -0.632801,0.001 -0.557247,0.64956 0.07721,0.66236 0.03611,0.70534 -0.432899,0.45272 -0.285014,-0.15353 -0.917464,-0.27915 -1.40545,-0.27915 -0.487982,0 -1.738943,-0.28323 -2.779913,-0.62941 -2.984851,-0.9926 -4.041808,-1.22432 -6.593533,-1.44553 -1.313197,-0.11389 -2.556556,-0.348076 -2.763015,-0.520546 -0.255781,-0.21366 -0.37538,-0.82797 -0.37538,-1.92811 0,-2.21498 -0.381724,-4.06047 -1.299907,-6.28462 -0.427566,-1.0357 -0.697752,-2.02522 -0.600419,-2.19894 0.09734,-0.17371 0.606746,-0.89792 1.132029,-1.60934 0.689411,-0.93371 1.043089,-1.75945 1.271548,-2.96868 0.550118,-2.911778 1.125915,-3.662712 3.274718,-4.270776 1.078378,-0.305157 1.036875,-1.944355 -0.04923,-1.944355 -0.322124,0 -0.899638,0.163944 -1.283358,0.364319 -0.633601,0.330854 -0.887802,0.295211 -2.767698,-0.388049 -2.527594,-0.918677 -4.622192,-1.005512 -5.895845,-0.244427 -0.467512,0.279362 -1.370495,1.170343 -2.006632,1.979953 -1.525526,1.94153 -3.868335,3.885318 -5.780086,4.795625 -0.849818,0.40466 -1.676088,0.73583 -1.836161,0.73594 -0.600532,3.7e-4 -2.39299,2.11573 -2.562228,3.02373 -0.314478,1.68722 0.06377,3.60103 1.0895,5.51246 0.534796,0.99659 1.063675,1.81197 1.175296,1.81197 0.111616,0 0.202936,0.1598 0.202936,0.35511 0,0.45902 2.002717,2.3167 3.119159,2.89327 0.4756,0.24561 1.14056,0.662936 1.477693,0.927396 0.421899,0.33093 1.038829,0.48081 1.979171,0.48081 0.811988,0 1.449579,0.13114 1.571743,0.32338 0.113043,0.17786 0.748341,0.58058 1.411768,0.89492 0.663427,0.31436 1.341053,0.82511 1.505833,1.13501 0.326272,0.61362 0.465349,0.60753 -1.685441,0.0739 -0.799268,-0.19831 -1.412157,0.27777 -1.412157,1.09691 0,0.61411 -0.256392,0.78779 -0.621574,0.42105 -0.106257,-0.10677 -1.16642,-0.19402 -2.35591,-0.19402 -1.88832,0 -2.162733,0.0575 -2.162862,0.45272 -1.69e-4,0.50686 -0.390295,0.60511 -0.659826,0.16615 z"
       id="path2960"
       inkscape:connector-curvature="0"
       sodipodi:nodetypes="ccccccccccscscscssssscsccssccccccccccccccccssccccsccccscccccccsccccccccccssscsccssscccsccccscccscccssscccsccccssccsccccscsccc" />
  </g>
</svg>
